<svg xmlns="http://www.w3.org/2000/svg" width="220" height="300" viewBox="0 0 220 300"><rect width="100%" height="100%" fill="#DDDDDD"/><path fill="#999999" d="M59.385 141.81h2.33v16.63h-2.72V147.7q0-.64.06-1.39l-5.02 9.44q-.36.68-1.09.68h-.44q-.74 0-1.09-.68l-5.09-9.48q.04.38.06.75.02.37.02.68v10.74h-2.72v-16.63h2.33q.21 0 .36.01t.27.06q.12.05.22.15.1.1.19.28l4.98 9.23q.19.37.36.76.17.39.33.8.16-.42.33-.82.17-.39.37-.76l4.91-9.21q.09-.18.2-.28.1-.1.22-.15.12-.05.27-.06.15-.01.36-.01Zm10.81 4.65q1.31 0 2.38.42 1.08.43 1.84 1.21.77.78 1.18 1.91.42 1.13.42 2.52 0 1.4-.42 2.53-.41 1.12-1.18 1.92-.76.79-1.84 1.22-1.07.42-2.38.42-1.33 0-2.41-.42-1.08-.43-1.84-1.22-.77-.8-1.19-1.92-.42-1.13-.42-2.53 0-1.39.42-2.52.42-1.13 1.19-1.91.76-.78 1.84-1.21 1.08-.42 2.41-.42Zm0 9.97q1.47 0 2.18-.99.7-.99.7-2.9t-.7-2.91q-.71-1-2.18-1-1.5 0-2.22 1.01-.72 1-.72 2.9t.72 2.89q.72 1 2.22 1Zm13.21-9.97q1.31 0 2.39.42 1.07.43 1.84 1.21.76.78 1.17 1.91.42 1.13.42 2.52 0 1.4-.42 2.53-.41 1.12-1.17 1.92-.77.79-1.84 1.22-1.08.42-2.39.42-1.32 0-2.4-.42-1.08-.43-1.85-1.22-.76-.8-1.18-1.92-.42-1.13-.42-2.53 0-1.39.42-2.52.42-1.13 1.18-1.91.77-.78 1.85-1.21 1.08-.42 2.4-.42Zm0 9.97q1.47 0 2.18-.99.71-.99.71-2.9t-.71-2.91q-.71-1-2.18-1-1.5 0-2.21 1.01-.72 1-.72 2.9t.72 2.89q.71 1 2.21 1Zm16.39-9.79h2.24l-4.68 11.8h-2.58l-4.68-11.8h2.35q.32 0 .53.15.22.15.29.38l2.27 6.3q.19.55.32 1.08.14.53.25 1.06.11-.53.25-1.06t.33-1.08l2.33-6.3q.08-.23.28-.38.21-.15.5-.15Zm3.84 0h2.85v11.8h-2.85v-11.8Zm3.24-3.44q0 .37-.15.69-.15.32-.4.57-.24.24-.58.38-.33.14-.71.14-.37 0-.69-.14-.33-.14-.57-.38-.25-.25-.39-.57-.14-.32-.14-.69 0-.38.14-.71.14-.33.39-.58.24-.24.57-.38.32-.14.69-.14.38 0 .71.14.34.14.58.38.25.25.4.58.15.33.15.71Zm4.75 7.98h5.36q0-.55-.16-1.04-.15-.49-.46-.85-.31-.37-.79-.58-.48-.22-1.11-.22-1.23 0-1.94.7-.7.71-.9 1.99Zm7.25 1.72h-7.31q.07.91.33 1.57.25.66.66 1.09.42.43.99.64.56.22 1.25.22t1.19-.17q.51-.16.88-.35.37-.2.65-.36.29-.16.55-.16.36 0 .53.27l.82 1.03q-.48.55-1.06.93-.59.37-1.23.59-.63.23-1.3.32-.66.09-1.28.09-1.23 0-2.29-.41-1.05-.4-1.84-1.2-.78-.8-1.23-1.98-.45-1.18-.45-2.73 0-1.21.4-2.27.39-1.07 1.12-1.86.73-.78 1.78-1.24 1.05-.46 2.37-.46 1.12 0 2.06.35.95.36 1.62 1.04.68.69 1.07 1.68.38 1 .38 2.27 0 .65-.14.87-.13.23-.52.23Zm20.44-11.09v2.54h-5.01v14.09h-3.09v-14.09h-5.02v-2.54h13.12Zm1.83 4.83h2.85v11.8h-2.85v-11.8Zm3.24-3.44q0 .37-.15.69-.14.32-.39.57-.25.24-.58.38-.34.14-.72.14-.36 0-.69-.14-.33-.14-.57-.38-.24-.25-.39-.57-.14-.32-.14-.69 0-.38.14-.71.15-.33.39-.58.24-.24.57-.38.33-.14.69-.14.38 0 .72.14.33.14.58.38.25.25.39.58.15.33.15.71Zm5.35 15.24h-2.84v-11.8h1.74q.55 0 .72.52l.19.87q.31-.34.65-.63t.72-.49q.39-.21.83-.33.44-.12.97-.12 1.12 0 1.83.6.72.6 1.08 1.6.28-.58.69-1 .41-.42.91-.69.49-.26 1.05-.39.56-.12 1.12-.12.98 0 1.74.3t1.27.87q.52.58.79 1.4.27.83.27 1.9v7.51h-2.84v-7.51q0-1.13-.49-1.7-.5-.57-1.45-.57-.44 0-.81.15-.38.15-.66.44-.28.28-.44.7-.16.43-.16.98v7.51h-2.85v-7.51q0-1.18-.48-1.72-.48-.55-1.4-.55-.62 0-1.15.31-.54.3-1 .83v8.64Zm18.67-7.26h5.36q0-.55-.16-1.04t-.47-.85q-.31-.37-.78-.58-.48-.22-1.11-.22-1.23 0-1.94.7-.71.71-.9 1.99Zm7.24 1.72h-7.3q.07.91.32 1.57t.67 1.09q.41.43.98.64.57.22 1.26.22.69 0 1.19-.17.5-.16.87-.35.38-.2.66-.36.28-.16.55-.16.35 0 .53.27l.81 1.03q-.47.55-1.06.93-.58.37-1.22.59-.64.23-1.3.32t-1.28.09q-1.23 0-2.29-.41-1.06-.4-1.84-1.2-.78-.8-1.23-1.98-.45-1.18-.45-2.73 0-1.21.39-2.27.39-1.07 1.12-1.86.73-.78 1.78-1.24 1.06-.46 2.38-.46 1.11 0 2.06.35.94.36 1.62 1.04.68.69 1.06 1.68.39 1 .39 2.27 0 .65-.14.87-.14.23-.53.23Z"/></svg>